<svg xmlns="http://www.w3.org/2000/svg" width="74" height="74" viewBox="0 0 74 74"><defs><style>.a{fill:#b70569;}.b{fill:none;}.c{fill:#fff;}</style></defs><g transform="translate(-964 -376)"><circle class="a" cx="37" cy="37" r="37" transform="translate(964 376)"/><g transform="translate(986 398)"><path class="b" d="M0,0H30V30H0Z"/><path class="c" d="M23.306,19.615l-1.846-1.848,1.846-1.846a6.526,6.526,0,1,0-9.229-9.229L12.232,8.539,10.385,6.693l1.848-1.846A9.137,9.137,0,0,1,25.154,17.77l-1.847,1.846Zm-3.691,3.691-1.847,1.846A9.137,9.137,0,0,1,4.847,12.23l1.847-1.846,1.846,1.848L6.694,14.079a6.526,6.526,0,1,0,9.229,9.229l1.845-1.846,1.847,1.846ZM18.691,9.462l1.847,1.847-9.229,9.228L9.462,18.691l9.229-9.228Z" transform="translate(0 0)"/></g></g></svg>